<?xml version="1.0" encoding="UTF-8" standalone="no"?>
<svg
   viewBox="0 0 24 24"
   version="1.1"
   id="svg1"
   sodipodi:docname="file-document-outline-Ch.svg"
   inkscape:version="1.3 (0e150ed6c4, 2023-07-21)"
   xmlns:inkscape="http://www.inkscape.org/namespaces/inkscape"
   xmlns:sodipodi="http://sodipodi.sourceforge.net/DTD/sodipodi-0.dtd"
   xmlns="http://www.w3.org/2000/svg"
   xmlns:svg="http://www.w3.org/2000/svg">
  <defs
     id="defs1" />
  <sodipodi:namedview
     id="namedview1"
     pagecolor="#ffffff"
     bordercolor="#666666"
     borderopacity="1.0"
     inkscape:showpageshadow="2"
     inkscape:pageopacity="0.0"
     inkscape:pagecheckerboard="0"
     inkscape:deskcolor="#d1d1d1"
     inkscape:zoom="34.383067"
     inkscape:cx="5.5259759"
     inkscape:cy="15.690863"
     inkscape:window-width="3840"
     inkscape:window-height="2066"
     inkscape:window-x="-11"
     inkscape:window-y="49"
     inkscape:window-maximized="1"
     inkscape:current-layer="svg1" />
  <path
     id="path1"
     d="M 6 2 A 2 2 0 0 0 4 4 L 4 20 A 2 2 0 0 0 6 22 L 13.648438 22 A 5.3367605 5.3367605 0 0 1 13.021484 20 L 6 20 L 6 4 L 13 4 L 13 9 L 18 9 L 18 14.128906 A 5.3367605 5.3367605 0 0 1 18.316406 14.105469 A 5.3367605 5.3367605 0 0 1 20 14.378906 L 20 8 L 14 2 L 6 2 z M 8 12 L 8 14 L 16 14 L 16 12 L 8 12 z M 8 16 L 8 18 L 13 18 L 13 16 L 8 16 z " />
  <path
     style="font-size:21.3333px;line-height:1.25;font-family:'jf-jinxuan-3.1';-inkscape-font-specification:'jf-jinxuan-3.1';text-align:center;letter-spacing:0px;word-spacing:0px;text-anchor:middle;stroke-width:0.999999"
     d="m 22.287394,21.982805 c -1.268725,-0.308609 -2.323138,-0.745804 -3.154668,-1.397312 0.788667,-0.908681 1.337305,-2.091682 1.560189,-3.583291 h 1.448747 v -0.428624 h -3.360407 l 0.522921,-0.42005 c -0.548638,-0.548638 -1.21729,-1.071559 -1.740211,-1.35445 l -0.197167,0.231457 c 0.325754,0.394333 0.780095,1.037268 1.097276,1.543043 h -3.669016 v 0.428624 h 1.783073 c 0.291464,1.457319 0.79724,2.657464 1.585906,3.609009 -0.900108,0.917253 -2.100254,1.525898 -3.488993,1.945949 l 0.111442,0.334327 c 1.491609,-0.291464 2.811769,-0.857247 3.831892,-1.774501 0.79724,0.780095 1.834508,1.363022 3.154668,1.765928 z m -5.289212,-4.980603 h 2.837487 c -0.180022,1.277297 -0.617218,2.297421 -1.234435,3.103233 -0.771522,-0.771522 -1.303016,-1.783073 -1.603052,-3.103233 z"
     id="text1"
     aria-label="文" />
</svg>
